<?xml version="1.0" encoding="UTF-8" standalone="no"?>
<!-- Created with Inkscape (http://www.inkscape.org/) -->

<svg
   width="1920"
   height="2000"
   viewBox="0 0 507.99999 529.16667"
   version="1.1"
   id="svg1"
   inkscape:export-filename="bckgrnd.svg"
   inkscape:export-xdpi="96"
   inkscape:export-ydpi="96"
   sodipodi:docname="bckgrnd2.svg"
   inkscape:version="1.3.2 (091e20e, 2023-11-25, custom)"
   xmlns:inkscape="http://www.inkscape.org/namespaces/inkscape"
   xmlns:sodipodi="http://sodipodi.sourceforge.net/DTD/sodipodi-0.dtd"
   xmlns="http://www.w3.org/2000/svg"
   xmlns:svg="http://www.w3.org/2000/svg">
  <sodipodi:namedview
     id="namedview1"
     pagecolor="#505050"
     bordercolor="#ffffff"
     borderopacity="1"
     inkscape:showpageshadow="0"
     inkscape:pageopacity="0"
     inkscape:pagecheckerboard="1"
     inkscape:deskcolor="#505050"
     inkscape:document-units="mm"
     inkscape:zoom="0.33914936"
     inkscape:cx="1020.1995"
     inkscape:cy="1055.5821"
     inkscape:window-width="1920"
     inkscape:window-height="991"
     inkscape:window-x="-9"
     inkscape:window-y="-9"
     inkscape:window-maximized="1"
     inkscape:current-layer="layer1" />
  <defs
     id="defs1" />
  <g
     inkscape:label="Layer 1"
     inkscape:groupmode="layer"
     id="layer1">
    <rect
       style="fill:#181a2b;fill-opacity:1;stroke-width:0.264583"
       id="rect1"
       width="646.68256"
       height="943.16833"
       x="-59.37241"
       y="-43.811169" />
    <circle
       id="path4"
       style="fill:#ffffff;stroke:#000000;stroke-width:0.264583"
       cx="183.69225"
       cy="370.60712"
       r="0.14308554" />
    <circle
       id="path5"
       style="fill:#ffffff;stroke:#000000;stroke-width:0.264583"
       cx="181.54379"
       cy="360.93915"
       r="0.14308554" />
    <path
       style="fill:#533554;fill-opacity:1;stroke-width:0.264583"
       id="path21"
       d="m 216.99795,-0.23376987 c 2.89192,4.75185987 5.88162,9.44455107 8.68668,14.24840587 4.06617,7.482701 7.32337,15.379831 10.70684,23.187921 3.39222,8.241847 6.07295,16.737972 8.27556,25.367027 2.16109,9.636366 4.23622,19.310186 5.74997,29.072427 1.00784,7.008982 1.29675,14.087899 1.42631,21.158609 0.0261,6.29123 0.17758,12.58718 -0.14746,18.87179 -0.45918,6.45176 -1.1335,12.93749 -2.78502,19.20975 -0.35257,1.33906 -0.78776,2.65499 -1.18164,3.98249 -2.06204,6.40933 -4.49936,12.74696 -7.98999,18.53031 -0.6597,1.09301 -1.3916,2.14077 -2.08741,3.21116 -4.19163,6.42415 -8.99017,12.41009 -14.06646,18.15058 -4.53098,5.70134 -9.7411,10.76947 -15.28673,15.46937 -5.54499,4.63402 -11.87102,8.19022 -18.00504,11.96793 -5.45529,3.42057 -10.63179,7.26459 -15.43471,11.54971 -5.09029,5.13865 -9.86214,10.61418 -14.29452,16.33077 -4.31257,5.21905 -7.80966,10.90437 -11.24989,16.70751 -1.73678,3.25774 -4.09537,6.15511 -5.83546,9.40835 -0.56323,1.05301 -1.59545,3.49152 -2.05389,4.54586 -2.07825,4.39676 -2.80326,9.19556 -3.49293,13.95931 -0.70934,4.8192 -0.72617,9.69996 -0.75356,14.5597 -0.42478,7.3003 0.74652,14.50057 1.94107,21.67316 0.77237,3.80815 0.93243,7.70787 1.97406,11.46103 0.70799,2.55098 1.56151,4.77893 2.45615,7.27499 3.09183,8.12157 6.21246,16.26414 10.05116,24.06679 4.13174,7.15052 7.99438,14.46127 12.37113,21.46667 3.62697,5.73384 8.1218,10.79559 12.89386,15.58671 6.58756,5.77128 14.07792,10.37403 21.42684,15.09118 9.2817,5.50103 18.58921,10.9574 27.89183,16.42612 6.84506,4.07601 13.71006,8.11276 20.39942,12.44169 6.20505,3.53295 11.31801,6.70422 17.40118,10.46292 5.15586,2.80371 9.96014,6.13836 14.73454,9.53101 3.63525,2.45906 6.90695,5.39652 10.21435,8.26836 3.9229,3.05654 7.76698,6.19744 11.54398,9.43136 1.90564,1.80533 3.95677,3.50068 5.66005,5.50966 0.16187,0.19095 1.89735,2.47436 2.05483,2.6811 1.88529,2.75984 3.40879,5.73865 5.09672,8.62126 1.76901,3.42834 3.56672,6.83752 5.48267,10.18559 1.98932,2.91814 2.85068,6.13315 3.30536,9.58297 0.97854,3.53761 1.79152,7.07721 2.23084,10.72396 0.34866,3.28509 0.38899,6.59082 0.41034,9.89086 -0.0942,2.50095 -0.89532,4.83312 -1.7943,7.13748 0,0 3.39154,1.89042 3.39154,1.89042 v 0 c 0.91836,-2.34489 1.76233,-4.71569 1.87388,-7.26183 -0.0175,-3.31414 -0.0288,-6.63326 -0.39433,-9.93219 -0.43416,-3.64683 -1.17256,-7.20339 -2.22346,-10.72436 -0.44249,-3.49165 -1.21322,-6.7746 -3.24884,-9.72513 -1.92358,-3.34359 -3.74346,-6.74082 -5.47799,-10.1873 -1.69246,-2.88978 -3.22109,-5.86817 -5.06934,-8.66111 -0.68789,-0.90038 -1.32222,-1.84261 -2.04388,-2.71614 -1.68854,-2.0439 -3.7769,-3.73179 -5.67637,-5.56596 -3.78219,-3.2268 -7.59777,-6.40254 -11.54541,-9.42811 -3.30226,-2.88406 -6.56976,-5.83819 -10.20349,-8.3059 -4.80137,-3.38074 -9.57766,-6.79106 -14.76878,-9.56985 -5.93583,-3.67279 -12.05027,-7.36505 -17.42602,-10.46385 -6.71065,-4.3585 -13.60716,-8.40655 -20.48559,-12.49264 -9.29364,-5.45846 -18.61914,-10.86535 -27.86604,-16.40054 -7.32365,-4.6989 -14.7839,-9.28132 -21.38467,-14.98711 -4.78279,-4.76769 -9.28935,-9.80753 -12.94089,-15.51422 -4.41244,-6.99238 -8.27884,-14.31038 -12.43742,-21.45421 -3.84833,-7.77627 -6.95526,-15.91011 -10.03808,-24.01351 -0.88835,-2.486 -1.7253,-4.67516 -2.42814,-7.21405 -1.03784,-3.74904 -1.20249,-7.64706 -1.99879,-11.44624 -1.21578,-7.14912 -2.43144,-14.32515 -1.96163,-21.60807 0.0749,-4.83645 0.10916,-9.69058 0.77636,-14.49091 0.67063,-4.73311 1.3846,-9.50124 3.4296,-13.87523 0.36119,-0.81997 1.58496,-3.64461 2.03757,-4.49943 1.72635,-3.26043 4.06315,-6.17376 5.79714,-9.43226 1.10031,-1.86274 2.14818,-3.75687 3.28386,-5.59827 2.38452,-3.86625 5.18948,-7.46016 7.92582,-11.07807 4.40975,-5.70769 9.15281,-11.18742 14.29215,-16.25011 4.78586,-4.26183 9.91567,-8.12481 15.35455,-11.52129 6.14895,-3.79035 12.50409,-7.33652 18.04233,-12.01278 5.53807,-4.73419 10.77918,-9.79854 15.32771,-15.50817 5.0616,-5.77369 9.84251,-11.79636 14.07033,-18.21244 0.7,-1.07776 1.43716,-2.13227 2.1,-3.23327 3.49762,-5.80965 5.92977,-12.18232 8.01357,-18.61102 0.40276,-1.33229 0.8511,-2.65164 1.20827,-3.99687 1.6683,-6.28348 2.33304,-12.79287 2.83624,-19.2545 0.37674,-6.28614 0.19249,-12.58772 0.18825,-18.88296 -0.1413,-7.09985 -0.47693,-14.20534 -1.48085,-21.243063 -1.53129,-9.776381 -3.64935,-19.454604 -5.7647,-29.118269 -2.17489,-8.6438 -4.81271,-17.162499 -8.22083,-25.407408 -3.38277,-7.807558 -6.63386,-15.704663 -10.65089,-23.211195 -2.76475,-4.77609 -5.74661,-9.4203409 -8.51151,-14.1970797 z" />
    <circle
       id="path22"
       style="fill:#533554;stroke:#000000;stroke-width:0.264583"
       cx="587.44397"
       cy="365.10461"
       r="0.10391364" />
    <path
       style="fill:#533554;fill-opacity:1;stroke-width:0.264583"
       id="path23"
       d="m 385.98046,253.1859 c -3.38643,6.05741 -6.96997,12.01351 -11.02474,17.65276 -3.26824,4.54541 -5.18009,6.73383 -8.73053,11.05996 -1.38647,1.63644 -2.80271,3.24815 -4.15944,4.90937 -2.19773,2.69099 -5.72675,6.61524 -4.83772,10.60095 0.49731,2.22951 2.28097,3.25853 3.86009,4.6333 8.10368,5.1878 17.2144,8.37134 26.08159,11.96515 2.63649,1.041 5.13104,2.40387 7.59701,3.79188 0.42251,0.23783 -1.64219,-1.0095 -1.28487,-0.68176 0.58187,0.5337 1.32659,0.85736 1.97207,1.31207 0.6785,0.47797 1.33233,0.99002 1.9985,1.48506 3.26991,2.60987 6.31627,5.74003 10.59736,6.73015 1.29503,0.29953 3.70541,-2.051 4.30403,-2.53201 0.82365,-0.96414 1.68931,-1.89391 2.47097,-2.8924 2.83927,-3.62688 5.25571,-7.58484 7.92154,-11.33718 3.20313,-4.50856 3.066,-4.22775 6.56873,-8.72969 3.82241,-4.26368 7.27647,-9.1445 12.05553,-12.4496 1.05884,-0.73226 2.17916,-1.48429 3.4358,-1.76382 2.47698,-0.55099 4.59825,0.8059 6.7074,1.72151 0.0236,0.0999 -0.007,0.23223 0.0707,0.2997 7.10015,6.19461 -1.04399,-1.44688 5.65145,4.69328 2.37853,2.18128 4.62682,4.51464 6.86051,6.84165 0.65233,0.66908 3.48398,3.58362 4.15984,4.2359 0.65532,0.63249 1.24695,1.35493 2.01308,1.84745 1.78448,1.14718 3.62283,2.24867 5.5908,3.04081 1.38515,0.55755 3.88848,0.19013 5.29265,0.076 3.38992,-0.86447 6.79487,-1.77991 10.06308,-3.04319 0.79867,-0.30871 1.62669,-0.5666 2.36866,-0.99393 0.66257,-0.38158 1.20533,-0.94102 1.808,-1.41153 0.37341,-0.51244 0.86958,-0.9549 1.12027,-1.5373 1.54673,-3.59342 -1.34448,-7.70097 -2.9301,-10.68671 -4.25288,-9.06693 -8.09672,-18.34258 -11.54051,-27.748 -1.70344,-4.89794 -4.11163,-9.46316 -6.86417,-13.83898 -2.41705,-3.46336 -4.54435,-4.68488 -8.75744,-6.2645 -0.99425,-0.37277 -2.90436,-0.0656 -3.85234,0.0224 -2.7904,0.56598 -5.64041,0.81313 -8.44084,1.30286 -1.68397,0.29449 -3.34219,0.72091 -5.01372,1.07929 -3.78709,0.85551 -7.65696,1.39669 -11.5375,0.86895 -2.33942,-0.31816 -3.83252,-0.84948 -6.07621,-1.51186 -2.56342,-1.06335 -2.46885,-0.938 -4.80086,-2.21975 -0.51208,-0.28145 1.69164,1.36119 1.5644,0.79089 -0.18886,-0.8464 -1.26103,-1.19812 -1.80581,-1.87286 -1.47005,-1.82075 -1.83885,-2.82252 -2.89023,-4.89833 -1.97107,-4.43407 -2.58098,-9.22191 -2.87859,-14.01441 -0.1415,-1.85627 0.0993,-4.21327 -1.14138,-5.79621 -1.13604,-1.44941 -5.56856,-3.10267 -5.7345,-3.18481 -8.80637,-1.91172 -17.65649,-3.61702 -26.48964,-5.40209 -6.10298,-0.92407 -12.07923,-2.48276 -18.13464,-3.64486 -4.01339,-0.77021 -5.53424,-0.96468 -9.53564,-1.57612 -3.55446,-0.42843 -7.1038,-1.00615 -10.67871,-1.25664 -1.54456,-0.10823 -3.1939,-0.17922 -4.73041,0.12308 -0.7103,0.13975 -1.38541,0.42046 -2.07812,0.63069 -3.7303,1.91648 -6.46784,5.26891 -8.72098,8.73079 -0.84177,1.19691 -1.18295,2.67101 -1.92474,3.91666 -0.88217,1.48136 -2.12429,2.77159 -3.28843,4.02566 -0.88492,0.98375 -3.46403,3.13404 -3.53515,4.58305 -0.0448,0.9134 0.5071,1.38563 1.00396,2.03891 2.62377,1.826 2.54461,1.87191 6.88994,3.71529 0.80417,0.34115 1.69063,0.44051 2.53458,0.66607 2.92007,0.78044 5.82699,1.56303 8.77104,2.24913 5.84203,0.86685 11.40806,2.64673 16.85986,4.86511 3.23757,1.58319 6.68263,2.87391 9.69695,4.88597 0.40976,0.2735 -1.69479,-0.99174 -1.31008,-0.684 0.66815,0.53449 1.44645,0.91442 2.16968,1.37164 3.1082,1.88606 1.5094,0.92735 4.79801,2.87346 0,0 3.57063,1.37496 3.57063,1.37496 v 0 c -3.27305,-1.93528 -1.67944,-0.9831 -4.78202,-2.85451 -5.49754,-3.49791 -11.12068,-6.81397 -17.14506,-9.32969 -5.4702,-2.19214 -11.05804,-3.93274 -16.90079,-4.82253 -2.94531,-0.69397 -5.86149,-1.46154 -8.77728,-2.27097 -0.84241,-0.23385 -1.68072,-0.9371 -2.52489,-0.70977 -0.51547,0.13882 1.59279,0.71467 1.193,1.06844 -0.41579,0.36796 -0.9494,-0.57594 -1.42412,-0.86391 -0.33044,-0.34976 -1.14945,-1.054 -1.17978,-1.65337 -0.0647,-1.27928 2.65028,-3.64321 3.41601,-4.48324 1.18862,-1.28314 2.46912,-2.60503 3.37548,-4.11599 0.73641,-1.2276 1.05547,-2.69438 1.87634,-3.88215 2.1821,-3.4028 4.86326,-6.69851 8.55454,-8.50863 0.67741,-0.19039 1.33966,-0.44667 2.03224,-0.57116 1.50839,-0.27114 3.14235,-0.19272 4.65418,-0.0895 3.54126,0.24187 7.06048,0.774 10.58008,1.20909 4.13006,0.63277 5.3717,0.78123 9.52116,1.59033 6.04665,1.17902 12.02446,2.70619 18.12163,3.63155 8.89069,1.77819 17.80511,3.47211 26.6283,5.56254 -0.62169,-0.48127 -1.26672,-0.93386 -1.8651,-1.44382 -0.28374,-0.24181 0.66003,0.36924 0.91892,0.63748 1.37631,1.42602 1.12811,3.8723 1.26061,5.65129 0.31089,4.84123 0.92202,9.68165 2.86494,14.17839 1.04671,2.13784 2.58566,5.49046 4.57091,6.94415 2.99691,2.19449 6.42033,3.83702 9.87343,5.16448 2.31778,0.65697 3.70663,1.14426 6.12352,1.44226 3.9103,0.48215 7.80923,-0.0733 11.62089,-0.93665 4.45921,-0.93911 8.9458,-1.65458 13.45436,-2.31958 0.68048,-0.0411 1.35993,-0.14117 2.04142,-0.12324 0.58555,0.0154 1.70817,0.80755 1.74307,0.22284 0.0436,-0.73013 -1.27016,-0.8101 -1.67153,-1.42155 -0.29588,-0.45074 0.92493,0.56282 1.33649,0.91115 0.96832,0.81961 1.69037,1.85204 2.46724,2.83948 2.78027,4.3669 5.22298,8.92319 6.98722,13.80655 3.4965,9.3847 7.42016,18.61352 11.46921,27.77057 1.41153,2.6853 4.39656,7.04778 3.06795,10.27538 -0.22712,0.55171 -0.69498,0.97002 -1.04246,1.45505 -0.57909,0.44556 -1.10183,0.97597 -1.73722,1.33665 -0.73742,0.4186 -1.55454,0.67953 -2.34683,0.98166 -3.24866,1.23883 -6.632,2.16048 -10.01168,2.95354 -0.85476,0.0511 -1.70891,0.19243 -2.56431,0.1533 -0.87844,-0.0402 -1.75726,-0.60836 -2.60906,-0.39 -0.40801,0.10459 1.27304,1.10239 0.96959,0.81029 -2.0828,-2.00499 -4.27069,-3.90448 -6.20225,-6.06703 -5.72402,-5.98707 -11.59476,-11.83788 -19.07434,-15.64325 -2.33688,-0.92469 -4.23897,-2.14207 -6.89277,-1.44555 -1.25764,0.33009 -2.36654,1.11281 -3.42239,1.87166 -4.73268,3.40141 -8.17509,8.28511 -12.05939,12.53165 -3.47985,4.42907 -3.44352,4.27714 -6.62387,8.72061 -2.67099,3.73187 -5.07814,7.68914 -7.95525,11.27038 -0.78092,0.97202 -1.65293,1.86721 -2.47941,2.80082 -0.74094,0.55878 -1.40322,1.24108 -2.22284,1.6763 -0.58828,0.31236 -1.81753,-0.12952 -1.92733,0.52742 -0.11772,0.70437 2.08711,0.89977 1.60133,1.42322 -0.20473,0.22061 -5.06724,-4.01415 -5.53127,-4.35957 -5.17628,-3.91596 -10.88247,-7.13412 -16.84933,-9.68097 -6.555,-2.62953 -13.21969,-5.13606 -19.57025,-8.19036 -1.42981,-1.16224 -3.4232,-2.33 -3.97444,-4.30977 -1.46793,-5.27233 5.92365,-11.86445 8.65849,-15.41756 3.56296,-4.34256 5.46352,-6.52915 8.76758,-11.07446 4.09125,-5.62821 7.70125,-11.57104 11.29332,-17.52186 z" />
    <path
       style="fill:#533554;fill-opacity:1;stroke-width:0.264583"
       id="path24"
       d="m 40.362729,414.7875 c 0.04037,4.95935 0.06758,9.91886 0.09787,14.87829 0.09128,11.66717 0.04127,23.33471 0.02156,35.00204 0.286861,4.47419 -0.367208,8.90916 -0.686581,13.35445 -0.131403,1.82898 -0.367911,4.17639 0.326716,5.98778 0.27088,0.70639 0.843449,1.25619 1.265173,1.88429 1.797183,1.06137 3.455517,2.40427 5.391547,3.1841 1.671553,0.67331 6.6807,0.30927 8.080264,0.22132 5.40567,-0.33972 10.60918,-1.31979 15.913806,-2.36005 1.556237,-0.31663 3.115173,-0.62029 4.668716,-0.94991 4.232256,-0.89794 3.652142,-0.87188 7.758149,-1.66484 3.045336,-0.58814 6.11323,-0.98573 9.158619,-1.57117 1.340572,-0.3587 2.693021,-0.45197 3.641531,-1.62904 1.750129,-2.17191 1.069499,-7.30428 0.978313,-9.84131 -0.255143,-8.41378 -1.33672,-16.76726 -2.268818,-25.12433 -0.154704,-2.36784 -0.618606,-4.73062 -0.674383,-7.10692 -0.01773,-0.75502 -0.148045,-1.68474 0.596114,-2.19184 0.272547,-0.18574 0.632296,-0.1879 0.948444,-0.28188 3.308797,-0.36225 6.495261,0.78089 9.713241,1.36903 3.98984,1.27614 8.21259,1.68177 12.18637,3.00447 0.94649,0.31504 1.86268,0.7147 2.79402,1.07204 6.1229,2.92923 12.25684,5.8705 18.6287,8.22116 6.43449,1.99708 -0.68277,-0.17237 5.59564,1.62325 2.37835,0.68019 4.95313,1.83671 7.50083,1.4097 0.95814,-0.16058 1.84426,-0.61156 2.76639,-0.91736 1.00837,-0.6086 2.07056,-1.13586 3.02512,-1.82582 3.88649,-2.8091 7.04048,-6.57076 10.31578,-10.0281 4.52454,-4.77599 2.59365,-2.81863 7.20849,-7.25038 2.27949,-2.62734 7.21673,-5.97725 7.4026,-9.91076 0.0804,-1.70077 -0.88181,-2.7673 -1.70233,-4.13057 -6.5215,-6.81757 -14.88441,-11.47445 -22.9465,-16.21083 -11.35106,-6.27539 -22.75851,-12.44225 -34.11032,-18.71708 -5.79874,-3.06316 -11.38368,-6.52383 -16.68723,-10.38032 -2.74777,-1.89769 -5.75635,-3.42619 -8.328833,-5.57805 -1.512729,-1.26537 -2.536317,-2.42816 -3.884202,-3.85257 -2.372572,-2.72968 -5.145543,-4.58645 -8.65845,-5.82332 -2.208456,-0.77756 -6.902373,1.39287 -8.736862,2.13871 -8.290584,3.87813 -16.562678,7.7969 -24.843065,11.69831 -4.223811,1.85785 -8.520599,3.52563 -12.862838,5.08193 -2.286791,0.81963 -4.49536,1.26511 -6.286378,3.0552 -0.761524,0.76115 -1.182828,1.79943 -1.774243,2.69914 -0.264991,1.18936 -0.664686,2.35654 -0.794975,3.5681 -0.25237,2.34674 0.08469,5.74577 0.339995,8.06804 0.398076,3.6209 0.991016,7.22405 1.580634,10.81733 1.045147,4.58166 2.418755,9.0609 3.051596,13.72516 0.571963,2.18024 -0.172321,6.82908 0.901311,8.65785 0.167656,0.28559 0.497004,0.43778 0.745506,0.65667 5.339138,1.93506 4.310806,2.29015 7.182572,-1.17409 0,0 -3.326746,-1.99993 -3.326746,-1.99993 v 0 c -0.425853,0.49652 -0.812864,1.0292 -1.277554,1.48958 -0.360252,0.35689 -1.354156,0.47318 -1.186765,0.95186 0.346334,0.99042 1.519259,1.44751 2.278888,2.17125 -0.28843,-0.14375 -0.663363,-0.18007 -0.865291,-0.43124 -1.137388,-1.4147 -0.477417,-6.6928 -0.970605,-8.60565 -0.61009,-4.69363 -2.002092,-9.18472 -3.122652,-13.77392 -0.602922,-3.59021 -1.212324,-7.19016 -1.625373,-10.80849 -0.260964,-2.28608 -0.606255,-5.63563 -0.369273,-7.95227 0.11925,-1.16573 0.499731,-2.28976 0.749596,-3.43463 0.563494,-0.85617 0.96339,-1.84608 1.690478,-2.5685 1.726385,-1.71527 3.992438,-2.2188 6.181477,-3.01937 4.336801,-1.58605 8.636783,-3.2621 12.865626,-5.12075 8.27932,-3.90501 16.549407,-7.83405 24.868058,-11.65219 2.237927,-0.85212 3.974827,-1.73239 6.346668,-1.94842 0.766059,-0.0698 1.786353,0.67582 2.305169,0.10789 0.399635,-0.43746 -1.921015,-1.36038 -1.37836,-1.12246 1.348309,0.59118 2.49486,2.0453 3.448728,3.06776 1.19377,1.27833 2.523728,2.77167 3.853611,3.91226 2.546421,2.18395 5.553852,3.71988 8.323252,5.58067 7.28154,5.33959 15.18367,9.74971 23.09377,14.07914 9.24165,5.10588 18.44945,10.29089 27.8408,15.11232 8.01808,4.69474 16.27222,9.321 22.86183,15.97972 0.71985,1.10434 1.83225,2.37394 1.82657,3.83415 -0.014,3.60225 -5.0625,7.45773 -7.15541,9.82081 -4.81213,4.66024 -2.45324,2.28198 -7.2029,7.27342 -3.26271,3.42881 -6.43693,7.15502 -10.34807,9.88425 -0.94887,0.66215 -2.00532,1.15488 -3.00799,1.73233 -0.90423,0.26649 -1.77858,0.67265 -2.7127,0.79942 -1.66379,0.22579 -3.30003,-0.27469 -4.86906,-0.70499 -2.71827,-0.74543 -5.42349,-1.5572 -8.11318,-2.39903 -6.36683,-2.38275 -12.49251,-5.34095 -18.64025,-8.2329 -0.94069,-0.35007 -1.86729,-0.74063 -2.82207,-1.05021 -4.00347,-1.29813 -8.23571,-1.7638 -12.25507,-3.0152 -3.257516,-0.6273 -6.523967,-1.7699 -9.873007,-1.22057 -0.36046,0.161 -0.778621,0.22963 -1.081386,0.483 -0.281107,0.23521 -0.501322,0.56909 -0.598348,0.92257 -0.225512,0.82156 0.03024,2.76384 0.100119,3.48337 0.221668,2.28248 0.296854,2.82094 0.574323,5.20531 1.002689,8.33818 2.120984,16.67735 2.264971,25.08766 0.06755,2.1455 0.616468,7.65611 -0.860042,9.46787 -0.870151,1.06773 -2.301356,1.20148 -3.50362,1.52604 -3.030019,0.58928 -6.082033,1.00944 -9.110017,1.61195 -4.415835,0.87871 -3.147391,0.70604 -7.710228,1.69675 -1.544415,0.33533 -3.094696,0.64304 -4.642046,0.96456 -5.301022,1.04447 -10.501188,2.01761 -15.910994,2.28698 -1.529728,0.0762 -3.064909,0.17687 -4.594005,0.089 -1.166685,-0.0671 -2.298959,-0.66537 -3.462073,-0.55218 -0.461785,0.0449 0.77002,0.51781 1.155028,0.77671 -0.452387,-0.58068 -1.060508,-1.06839 -1.357161,-1.74207 -0.772444,-1.75419 -0.564357,-4.14155 -0.452517,-5.92961 0.279379,-4.46672 0.976389,-8.92172 0.646215,-13.41482 -0.01966,-11.66 -0.06986,-23.32024 0.02156,-34.98009 0.03028,-4.92617 0.05746,-9.85244 0.09788,-14.77854 z" />
    <path
       style="fill:#533554;fill-opacity:1;stroke-width:0.264583"
       id="path25"
       d="m 53.883252,384.60891 c 0.952627,2.52571 1.942042,5.07333 2.404161,7.74658 0.334478,1.9349 0.38817,3.48924 0.519334,5.442 -0.07346,7.24376 -3.256899,13.81935 -6.291953,20.23137 -1.580777,2.98764 -3.376403,5.88631 -5.414684,8.58668 -1.372158,1.81787 -2.98033,3.43133 -4.471371,5.14747 -1.204577,1.80927 -1.470745,1.63562 3.308847,3.01008 0.50188,0.14433 0.931207,-0.47297 1.39681,-0.70945 0,0 -3.258471,-2.16342 -3.258471,-2.16342 v 0 c -0.443243,0.17169 -1.556131,0.0971 -1.329732,0.51504 2.084858,3.84881 2.403173,2.73206 3.220669,1.35704 1.464181,-1.75072 3.056549,-3.38714 4.419735,-5.2225 2.029421,-2.73238 3.835427,-5.64758 5.406993,-8.66413 3.035446,-6.46985 6.306789,-13.07438 6.444221,-20.36823 -0.110903,-1.72656 -0.202496,-3.77489 -0.47384,-5.48629 -0.423396,-2.67047 -1.396526,-5.21383 -2.307711,-7.74422 z" />
    <path
       style="fill:#533554;fill-opacity:1;stroke-width:0.264583"
       id="path26"
       d="m 70.41847,368.01147 c 3.47868,4.4432 7.718321,8.17089 12.077176,11.71755 3.442025,2.55939 7.114989,4.73392 10.941854,6.67752 2.310183,1.17327 4.884846,1.82663 7.38423,2.43613 3.42551,0.53282 7.00573,1.15509 10.47106,0.53917 0.59586,-0.10589 1.17148,-0.30451 1.75721,-0.45675 1.64492,-0.47184 3.20573,-1.11657 4.74894,-1.84542 0,0 -3.24981,-2.1513 -3.24981,-2.1513 v 0 c -1.53114,0.70239 -3.0795,1.32636 -4.70438,1.78607 -4.03591,0.97205 -8.0453,0.5932 -12.089113,-0.21587 -2.130261,-0.54184 -2.582579,-0.59455 -4.681738,-1.39198 -0.884211,-0.33591 -1.710653,-0.82738 -2.618002,-1.09453 -0.26411,-0.0778 0.884018,0.65329 0.646512,0.51404 -1.709235,-1.00214 -3.441224,-2.24785 -5.066969,-3.37402 -4.330824,-3.49277 -8.59041,-7.14052 -11.975327,-11.59338 z" />
    <path
       style="fill:#533554;fill-opacity:1;stroke-width:0.264583"
       id="path27"
       d="m 45.440118,187.78634 c 0.131897,-5.57027 -0.444423,-11.19869 0.102132,-16.75732 0.154934,-1.57573 0.466198,-3.13215 0.699299,-4.69823 0.361616,-1.56131 0.602004,-3.15576 1.084847,-4.68394 2.047687,-6.48082 5.76934,-12.84901 10.746737,-17.51438 1.112166,-1.04245 2.38138,-1.90354 3.572071,-2.85531 4.047879,-2.53913 8.992407,-5.7837 14.025345,-5.48291 0.74123,0.0443 1.463993,0.24953 2.195992,0.37429 0.983379,0.33213 3.199315,0.98864 3.998272,1.65559 0.32639,0.27246 -1.454529,-0.68236 -1.235186,-0.31814 0.532873,0.88483 1.559718,1.3565 2.296482,2.08042 2.089812,2.05339 2.220294,2.39008 3.99732,4.70484 1.62134,2.05037 2.973234,4.28717 4.338185,6.50962 0,0 3.533373,1.56132 3.533373,1.56132 v 0 c -1.379003,-2.23686 -2.7325,-4.49667 -4.36595,-6.56269 -4.126492,-5.49476 -8.795825,-10.04819 -15.655986,-11.95107 -0.745773,-0.10132 -1.484987,-0.2831 -2.237322,-0.30396 -5.090448,-0.14113 -9.978136,3.11975 -14.047383,5.75134 -1.195281,0.97091 -2.468895,1.85263 -3.585845,2.91272 -4.974777,4.7215 -8.753789,11.16835 -10.845691,17.67707 -0.493077,1.53416 -0.734123,3.13817 -1.101185,4.70726 -0.249714,1.57255 -0.579821,3.13442 -0.749139,4.71765 -0.591851,5.53414 0.02111,11.1422 -0.271139,16.69006 z" />
    <path
       style="fill:#533554;fill-opacity:1;stroke-width:0.264583"
       id="path28"
       d="m 50.754621,188.05674 c 3.766682,-1.66549 7.550684,-3.28517 11.328749,-4.92607 5.301771,-2.10563 9.848207,-5.477 14.33051,-8.92756 3.361767,-2.86905 6.708,-5.84814 9.650738,-9.15935 0.416698,-0.46888 2.900688,-3.54269 3.36463,-4.11485 1.426067,-1.58701 2.57008,-3.39001 3.779377,-5.13913 0.227758,-0.32944 0.972931,-0.70028 0.689927,-0.98367 -3.358954,-3.36349 -3.256491,-2.31255 -5.275548,-0.14076 -6.30424,6.31311 -12.105359,13.0909 -18.193178,19.60452 -0.829628,0.82791 -1.659258,1.65581 -2.488886,2.48372 0,0 3.232907,1.97995 3.232907,1.97995 v 0 c 0.825273,-0.83574 1.650548,-1.67149 2.475823,-2.50724 6.037516,-6.56426 11.795987,-13.38765 18.26302,-19.54806 1.932538,-1.84216 3.519109,-2.27898 -1.402265,-3.86094 -0.380738,-0.12238 -0.436623,0.67018 -0.657082,1.00385 -1.165752,1.76444 -2.3378,3.53153 -3.728366,5.1312 -0.53455,0.66708 -2.816071,3.5277 -3.323664,4.1036 -2.914705,3.30693 -6.23789,6.28097 -9.592892,9.12424 -4.486071,3.41769 -9.059801,6.72196 -14.348578,8.80491 -3.782574,1.65019 -7.564213,3.30576 -11.384256,4.86453 z" />
    <path
       style="fill:#533554;fill-opacity:1;stroke-width:0.264583"
       id="path29"
       d="m 53.055615,188.39567 c 4.0832,-0.0329 8.166674,-0.0273 12.249991,-0.027 5.423701,0.0195 10.799281,-1.06257 16.087561,-2.17879 4.894839,-0.99865 9.563959,-2.8593 13.991476,-5.14199 4.448669,-2.07045 8.861577,-4.26559 13.075407,-6.78417 4.49747,-2.52478 8.85033,-5.22514 13.01556,-8.26606 3.96302,-2.87348 6.7371,-6.83543 8.97833,-11.11734 2.07185,-3.8664 2.63251,-8.16003 2.97199,-12.46283 0.20362,-2.26176 0.30605,-4.60772 -1.42043,-6.34146 -1.51562,-1.52198 -3.67513,-2.22731 -5.56195,-3.25369 -4.26042,-1.3129 -8.40031,0.48136 -12.3602,1.96055 -5.36733,2.49921 -10.57186,5.33201 -15.89114,7.93984 -3.151473,1.52346 -1.628227,0.77253 -4.57174,2.24873 0,0 3.224128,2.11951 3.224128,2.11951 v 0 c 2.920798,-1.48539 1.407419,-0.72941 4.542342,-2.26353 2.68019,-1.32687 5.38836,-2.61688 8.04296,-3.99374 2.49987,-1.29661 2.413,-1.42617 5.04306,-2.68558 0.91488,-0.43809 1.85651,-0.81798 2.78476,-1.22696 3.9316,-1.44881 8.08234,-3.14854 12.26146,-1.65967 -0.73885,-0.47472 -1.47795,-0.94905 -2.21655,-1.42415 -0.3653,-0.23497 0.76708,0.42082 1.09662,0.70377 0.33875,0.29086 0.64496,0.62792 0.88946,1.00152 1.02112,1.56033 0.81856,3.31919 0.69922,5.08979 -0.31763,4.25379 -0.858,8.49962 -2.8879,12.32937 -2.22682,4.22538 -4.93511,8.15258 -8.87259,10.97528 -4.16201,3.03039 -8.51449,5.71765 -13.01042,8.22744 -4.20944,2.51272 -8.615702,4.70577 -13.063384,6.76243 -4.408377,2.25382 -9.044326,4.10065 -13.916766,5.06882 -5.276588,1.1192 -10.641851,2.16812 -16.057131,2.10183 -4.108095,2.6e-4 -8.216339,0.006 -12.324318,-0.027 z" />
    <path
       style="fill:#533554;fill-opacity:1;stroke-width:0.264583"
       id="path30"
       d="m 63.52279,137.97214 c -1.974929,5.29935 -3.872089,10.62639 -5.644967,15.99849 -1.713013,5.2883 -2.729135,10.75765 -3.267514,16.28072 -0.267311,2.16756 -0.03198,4.32468 0.535374,6.41934 0,0 3.549195,1.68186 3.549195,1.68186 v 0 c -0.653344,-2.03809 -0.885304,-4.17049 -0.641718,-6.30683 0.481163,-5.5116 1.435446,-10.97453 3.139969,-16.25042 1.772044,-5.36273 3.682066,-10.6791 5.787369,-15.91885 z" />
    <path
       style="fill:#533554;fill-opacity:1;stroke-width:0.264583"
       id="path31"
       d="m 68.779379,138.71261 c 2.074788,2.95478 4.915699,5.22471 7.151158,8.05643 1.733833,2.26448 2.381099,4.88921 2.636112,7.66717 -0.0036,1.39817 0.123968,2.72596 0.372385,4.09918 0,0 3.51472,1.70895 3.51472,1.70895 v 0 c -0.268282,-1.36003 -0.393753,-2.66844 -0.379531,-4.05838 -0.224245,-2.84018 -0.82881,-5.54339 -2.567758,-7.88342 -2.182781,-2.84623 -4.98457,-5.09997 -7.114447,-7.97955 z" />
    <path
       style="fill:#533554;fill-opacity:1;stroke-width:0.264583"
       id="path32"
       d="m 63.412044,378.31699 c 3.744616,5.64126 6.6681,11.77851 9.75823,17.7896 4.71193,8.88111 8.327429,18.26588 11.988977,27.60898 0,0 3.40605,1.57729 3.40605,1.57729 v 0 c -3.705371,-9.34249 -7.352586,-18.73163 -12.005625,-27.65671 -3.046936,-5.97292 -5.917599,-12.06987 -9.53562,-17.72613 z" />
    <circle
       id="path33"
       style="fill:#181a2b;stroke:#000000;stroke-width:0.264583;fill-opacity:1"
       cx="631.9118"
       cy="196.5948"
       r="0.10391364" />
  </g>
</svg>
